# xmcd
#
# Track frame offsets:
#	150
#	19169
#	35601
#	52631
#	68413
#	87019
#	103854
#	121687
#	137209
#	156411
#	175430
#	191862
#	208892
#	224674
#	243280
#	260115
#	277948
#	293470
#
# Disc length: 4168 seconds
#
# Revision: 2
# Processed by: cddbd v1.5.2PL0 Copyright (c) Steve Scherf et al.
# Submitted via: audiograbber 1.83.01
#
DISCID=0b104612
DTITLE=Various Artist - PHN0205
DYEAR=2002
DGENRE=Country
TTITLE0=Alan Jackson - Drive (For Daddy Gene)
TTITLE1=Garth Brooks and Trisha Yearwood - Squeeze Me In
TTITLE2=George Strait - Living And Lining Well
TTITLE3=Mark Chesnutt - She Was
TTITLE4=Sara Evans - I Keep Looking
TTITLE5=Reba McEntire - Sweet Music Man
TTITLE6=Trace Adkins - Help Me Understand
TTITLE7=Steve Azar - I Don't Have to Be Me ('Til Monday)
TTITLE8=Kellie Coffey - When You Lie Next To Me
TTITLE9=Alan Jackson - Drive (For Daddy Gene) (vocal)
TTITLE10=Garth Brooks and Trisha Yearwood - Squeeze Me In (vocal)
TTITLE11=George Strait - Living And Lining Well (vocal)
TTITLE12=Mark Chesnutt - She Was (vocal)
TTITLE13=Sara Evans - I Keep Looking (vocal)
TTITLE14=Reba McEntire - Sweet Music Man (vocal)
TTITLE15=Trace Adkins - Help Me Understand (vocal)
TTITLE16=Steve Azar - I Don't Have to Be Me ('Til Monday) (vocal)
TTITLE17=Kellie Coffey - When You Lie Next To Me (vocal)
EXTD=fixed album to PHN0205
EXTT0=
EXTT1=
EXTT2=
EXTT3=
EXTT4=
EXTT5=
EXTT6=
EXTT7=
EXTT8=
EXTT9=
EXTT10=
EXTT11=
EXTT12=
EXTT13=
EXTT14=
EXTT15=
EXTT16=
EXTT17=
PLAYORDER=
